<?xml version="1.0" encoding="utf-8"?>
<!-- Generator: Adobe Illustrator 19.2.0, SVG Export Plug-In . SVG Version: 6.00 Build 0)  -->
<svg version="1.1" id="Layer_1" xmlns="http://www.w3.org/2000/svg" xmlns:xlink="http://www.w3.org/1999/xlink" x="0px" y="0px"
	 viewBox="0 0 422.6 318.1" style="enable-background:new 0 0 422.6 318.1;" xml:space="preserve">
<style type="text/css">
	.st0{fill:none;stroke:#000000;stroke-miterlimit:10;}
	.st1{fill:#247739;stroke:#000000;stroke-miterlimit:10;}
	.st2{fill:#D10D0D;stroke:#000000;stroke-miterlimit:10;}
	.st3{fill:#FFFFFF;stroke:#000000;stroke-miterlimit:10;}
	.st4{fill:#EDE2E2;stroke:#000000;stroke-miterlimit:10;}
	.st5{fill:#066618;stroke:#066618;stroke-miterlimit:10;}
</style>
<line class="st0" x1="595.4" y1="93" x2="595.4" y2="93"/>
<path class="st1" d="M591.8,170.1"/>
<g>
	<path class="st2" d="M21,62.4c-32.6,51-12.3,132.9,32.3,183.3c54.3,61.2,133.4,63,153.5,63.4c19.3,0.4,111.9,2.4,168.7-68.4
		c5.7-7.1,63.6-81.7,30.3-155.5c-23.1-51.2-75.9-70.5-83.8-73.3c-14.8-5.2-37.5-12.6-64.6-7.9c-24.6,4.3-30.6,14.4-53.5,12.9
		c-11.7-0.8-12.3-3.6-38.4-8.9C146.5,4,137,2,126.1,2c-30-0.3-52.7,13.8-62.6,19.8C61.8,22.8,36.1,38.8,21,62.4z"/>
	<path class="st3" d="M29.1,203"/>
	<path class="st3" d="M57.4,289.2"/>
	<path class="st0" d="M160,7.5"/>
	<path class="st0" d="M201.8,18.8"/>
	<path class="st4" d="M341.1,65.7c3.2,0.4,25.6,3.9,37.8,23.6c10.8,17.5,9.2,40.9-4.4,58.6c-4.1-2-7.1-1.9-9-1.2
		c-0.5,0.2-0.8,0.4-1.1,0.2c-1.8-1,5.9-12.2,6.9-26.4c0.2-3.2,0.5-12.6-4.4-22.7c-2.1-4.4-3.8-7.8-7.7-10.8
		c-9.4-7.2-18.4-8.4-18.4-8.4c-0.7-0.1-1.8-0.2-2.6-1.1C336,75.4,338.6,70.1,341.1,65.7z"/>
	<path class="st0" d="M405.1,65.7"/>
	<path class="st0" d="M499.4,41"/>
	<path class="st0" d="M471.9,93.9"/>
	<path class="st5" d="M206.3,18.6c5.8-2.5,22.2-8.5,42.4-4.5c18.5,3.6,30.1,13.5,34.6,17.8c-9.6-4.1-22.6-8.5-38.4-11.2
		C229.8,18.2,216.6,18,206.3,18.6z"/>
	<path class="st5" d="M140.4,56.9c2.8-5.6,11.4-20.5,29.4-30.3c16.5-9,31.9-8.7,38.1-8.3c-10.1,3-22.9,7.8-36.7,15.8
		C158.1,41.6,147.9,49.9,140.4,56.9z"/>
	<path class="st5" d="M177.9,87.8c-0.9-6.2-2.7-23.2,6.3-41.4c8.3-16.7,21-25.1,26.4-28.2c-6.5,8.1-14.2,19.2-20.8,33.6
		C183.5,65.3,179.9,77.8,177.9,87.8z"/>
	<path class="st5" d="M207.9,18.1c5.7,2.6,21.2,10.6,31.7,28.1c9.6,16,9.7,31,9.4,37.2c-3.3-9.8-8.5-22.2-17-35.5
		C223.9,35.1,215.3,25.3,207.9,18.1z"/>
</g>
</svg>
